<mxfile host="app.diagrams.net" agent="Mozilla/5.0 (X11; Linux x86_64) AppleWebKit/537.36 (KHTML, like Gecko) Chrome/128.0.0.0 Safari/537.36" version="24.7.16">
  <diagram name="第 1 页" id="uTWK3UI2qiWhKI4fjHLp">
    <mxGraphModel dx="1912" dy="831" grid="0" gridSize="10" guides="1" tooltips="1" connect="1" arrows="1" fold="1" page="0" pageScale="1" pageWidth="827" pageHeight="1169" math="0" shadow="0">
      <root>
        <mxCell id="0" />
        <mxCell id="1" parent="0" />
        <mxCell id="VyhmnqB3cHVvN08Xzc9Z-34" value="" style="rounded=0;whiteSpace=wrap;html=1;" vertex="1" parent="1">
          <mxGeometry x="151" y="254.5" width="81" height="94" as="geometry" />
        </mxCell>
        <mxCell id="VyhmnqB3cHVvN08Xzc9Z-1" value="redis" style="shape=cylinder3;whiteSpace=wrap;html=1;boundedLbl=1;backgroundOutline=1;size=15;" vertex="1" parent="1">
          <mxGeometry x="-208" y="174" width="60" height="60" as="geometry" />
        </mxCell>
        <mxCell id="VyhmnqB3cHVvN08Xzc9Z-3" value="" style="endArrow=none;dashed=1;html=1;rounded=0;" edge="1" parent="1">
          <mxGeometry width="50" height="50" relative="1" as="geometry">
            <mxPoint x="-107" y="603" as="sourcePoint" />
            <mxPoint x="-107" y="80" as="targetPoint" />
          </mxGeometry>
        </mxCell>
        <mxCell id="VyhmnqB3cHVvN08Xzc9Z-4" value="" style="endArrow=none;dashed=1;html=1;rounded=0;" edge="1" parent="1" source="VyhmnqB3cHVvN08Xzc9Z-18">
          <mxGeometry width="50" height="50" relative="1" as="geometry">
            <mxPoint x="74" y="517" as="sourcePoint" />
            <mxPoint x="74" y="73" as="targetPoint" />
          </mxGeometry>
        </mxCell>
        <mxCell id="VyhmnqB3cHVvN08Xzc9Z-5" value="" style="endArrow=none;dashed=1;html=1;rounded=0;" edge="1" parent="1">
          <mxGeometry width="50" height="50" relative="1" as="geometry">
            <mxPoint x="270" y="593" as="sourcePoint" />
            <mxPoint x="270" y="73" as="targetPoint" />
          </mxGeometry>
        </mxCell>
        <mxCell id="VyhmnqB3cHVvN08Xzc9Z-6" value="中间件" style="text;html=1;align=center;verticalAlign=middle;resizable=0;points=[];autosize=1;strokeColor=none;fillColor=none;" vertex="1" parent="1">
          <mxGeometry x="-205" y="56" width="54" height="26" as="geometry" />
        </mxCell>
        <mxCell id="VyhmnqB3cHVvN08Xzc9Z-7" value="平台服务" style="text;html=1;align=center;verticalAlign=middle;resizable=0;points=[];autosize=1;strokeColor=none;fillColor=none;" vertex="1" parent="1">
          <mxGeometry x="-53" y="56" width="66" height="26" as="geometry" />
        </mxCell>
        <mxCell id="VyhmnqB3cHVvN08Xzc9Z-8" value="集群" style="text;html=1;align=center;verticalAlign=middle;resizable=0;points=[];autosize=1;strokeColor=none;fillColor=none;" vertex="1" parent="1">
          <mxGeometry x="159" y="56" width="42" height="26" as="geometry" />
        </mxCell>
        <mxCell id="VyhmnqB3cHVvN08Xzc9Z-9" value="中间件" style="text;html=1;align=center;verticalAlign=middle;resizable=0;points=[];autosize=1;strokeColor=none;fillColor=none;" vertex="1" parent="1">
          <mxGeometry x="345" y="56" width="54" height="26" as="geometry" />
        </mxCell>
        <mxCell id="VyhmnqB3cHVvN08Xzc9Z-10" value="发起任务" style="rounded=1;whiteSpace=wrap;html=1;" vertex="1" parent="1">
          <mxGeometry x="-56" y="107" width="82" height="35" as="geometry" />
        </mxCell>
        <mxCell id="VyhmnqB3cHVvN08Xzc9Z-11" value="pgsql" style="shape=cylinder3;whiteSpace=wrap;html=1;boundedLbl=1;backgroundOutline=1;size=15;" vertex="1" parent="1">
          <mxGeometry x="-208" y="362" width="60" height="60" as="geometry" />
        </mxCell>
        <mxCell id="VyhmnqB3cHVvN08Xzc9Z-55" style="edgeStyle=orthogonalEdgeStyle;rounded=0;orthogonalLoop=1;jettySize=auto;html=1;entryX=0;entryY=0.5;entryDx=0;entryDy=0;" edge="1" parent="1" source="VyhmnqB3cHVvN08Xzc9Z-12" target="VyhmnqB3cHVvN08Xzc9Z-18">
          <mxGeometry relative="1" as="geometry" />
        </mxCell>
        <mxCell id="VyhmnqB3cHVvN08Xzc9Z-56" value="慢&lt;div&gt;启&lt;/div&gt;&lt;div&gt;动&lt;/div&gt;" style="edgeLabel;html=1;align=center;verticalAlign=middle;resizable=0;points=[];" vertex="1" connectable="0" parent="VyhmnqB3cHVvN08Xzc9Z-55">
          <mxGeometry x="0.1111" y="1" relative="1" as="geometry">
            <mxPoint as="offset" />
          </mxGeometry>
        </mxCell>
        <mxCell id="VyhmnqB3cHVvN08Xzc9Z-64" style="edgeStyle=orthogonalEdgeStyle;rounded=0;orthogonalLoop=1;jettySize=auto;html=1;" edge="1" parent="1" target="VyhmnqB3cHVvN08Xzc9Z-45">
          <mxGeometry relative="1" as="geometry">
            <mxPoint x="32" y="228" as="sourcePoint" />
            <Array as="points">
              <mxPoint x="32" y="271" />
              <mxPoint x="-15" y="271" />
            </Array>
          </mxGeometry>
        </mxCell>
        <mxCell id="VyhmnqB3cHVvN08Xzc9Z-65" value="是否&lt;div&gt;发起&lt;/div&gt;" style="edgeLabel;html=1;align=center;verticalAlign=middle;resizable=0;points=[];" vertex="1" connectable="0" parent="VyhmnqB3cHVvN08Xzc9Z-64">
          <mxGeometry x="0.31" y="2" relative="1" as="geometry">
            <mxPoint x="7" y="-3" as="offset" />
          </mxGeometry>
        </mxCell>
        <mxCell id="VyhmnqB3cHVvN08Xzc9Z-12" value="定时任务&lt;div&gt;消费数据&lt;/div&gt;" style="rounded=1;whiteSpace=wrap;html=1;" vertex="1" parent="1">
          <mxGeometry x="-56" y="210" width="82" height="35" as="geometry" />
        </mxCell>
        <mxCell id="VyhmnqB3cHVvN08Xzc9Z-57" style="rounded=0;orthogonalLoop=1;jettySize=auto;html=1;entryX=0;entryY=0.75;entryDx=0;entryDy=0;exitX=1;exitY=0.5;exitDx=0;exitDy=0;" edge="1" parent="1" source="VyhmnqB3cHVvN08Xzc9Z-13" target="VyhmnqB3cHVvN08Xzc9Z-18">
          <mxGeometry relative="1" as="geometry" />
        </mxCell>
        <mxCell id="VyhmnqB3cHVvN08Xzc9Z-58" value="1" style="edgeLabel;html=1;align=center;verticalAlign=middle;resizable=0;points=[];" vertex="1" connectable="0" parent="VyhmnqB3cHVvN08Xzc9Z-57">
          <mxGeometry x="-0.1572" relative="1" as="geometry">
            <mxPoint as="offset" />
          </mxGeometry>
        </mxCell>
        <mxCell id="VyhmnqB3cHVvN08Xzc9Z-13" value="定时任务&lt;div&gt;更新状态&lt;/div&gt;" style="rounded=1;whiteSpace=wrap;html=1;" vertex="1" parent="1">
          <mxGeometry x="-56" y="382" width="82" height="35" as="geometry" />
        </mxCell>
        <mxCell id="VyhmnqB3cHVvN08Xzc9Z-14" style="rounded=0;orthogonalLoop=1;jettySize=auto;html=1;entryX=1;entryY=0;entryDx=0;entryDy=22.5;entryPerimeter=0;exitX=0;exitY=0.5;exitDx=0;exitDy=0;" edge="1" parent="1" source="VyhmnqB3cHVvN08Xzc9Z-10" target="VyhmnqB3cHVvN08Xzc9Z-11">
          <mxGeometry relative="1" as="geometry" />
        </mxCell>
        <mxCell id="VyhmnqB3cHVvN08Xzc9Z-17" value="任务信息" style="edgeLabel;html=1;align=center;verticalAlign=middle;resizable=0;points=[];" vertex="1" connectable="0" parent="VyhmnqB3cHVvN08Xzc9Z-14">
          <mxGeometry x="0.4766" relative="1" as="geometry">
            <mxPoint as="offset" />
          </mxGeometry>
        </mxCell>
        <mxCell id="VyhmnqB3cHVvN08Xzc9Z-15" style="rounded=0;orthogonalLoop=1;jettySize=auto;html=1;entryX=1;entryY=0;entryDx=0;entryDy=37.5;entryPerimeter=0;exitX=0;exitY=0.5;exitDx=0;exitDy=0;" edge="1" parent="1" source="VyhmnqB3cHVvN08Xzc9Z-10" target="VyhmnqB3cHVvN08Xzc9Z-1">
          <mxGeometry relative="1" as="geometry" />
        </mxCell>
        <mxCell id="VyhmnqB3cHVvN08Xzc9Z-16" value="任务id" style="edgeLabel;html=1;align=center;verticalAlign=middle;resizable=0;points=[];" vertex="1" connectable="0" parent="VyhmnqB3cHVvN08Xzc9Z-15">
          <mxGeometry x="0.321" y="-3" relative="1" as="geometry">
            <mxPoint as="offset" />
          </mxGeometry>
        </mxCell>
        <mxCell id="VyhmnqB3cHVvN08Xzc9Z-19" value="" style="endArrow=none;dashed=1;html=1;rounded=0;" edge="1" parent="1" target="VyhmnqB3cHVvN08Xzc9Z-18">
          <mxGeometry width="50" height="50" relative="1" as="geometry">
            <mxPoint x="74" y="599" as="sourcePoint" />
            <mxPoint x="74" y="73" as="targetPoint" />
          </mxGeometry>
        </mxCell>
        <mxCell id="VyhmnqB3cHVvN08Xzc9Z-18" value="K&lt;div&gt;8&lt;/div&gt;&lt;div&gt;S&lt;/div&gt;&lt;div&gt;接口&lt;/div&gt;" style="rounded=0;whiteSpace=wrap;html=1;" vertex="1" parent="1">
          <mxGeometry x="61" y="156" width="24" height="143" as="geometry" />
        </mxCell>
        <mxCell id="VyhmnqB3cHVvN08Xzc9Z-20" value="" style="rounded=0;whiteSpace=wrap;html=1;" vertex="1" parent="1">
          <mxGeometry x="151" y="114" width="81" height="94" as="geometry" />
        </mxCell>
        <mxCell id="VyhmnqB3cHVvN08Xzc9Z-21" value="pod" style="rounded=1;whiteSpace=wrap;html=1;" vertex="1" parent="1">
          <mxGeometry x="159" y="142" width="54" height="26" as="geometry" />
        </mxCell>
        <mxCell id="VyhmnqB3cHVvN08Xzc9Z-22" value="pod" style="rounded=1;whiteSpace=wrap;html=1;" vertex="1" parent="1">
          <mxGeometry x="159" y="177" width="54" height="26" as="geometry" />
        </mxCell>
        <mxCell id="VyhmnqB3cHVvN08Xzc9Z-23" value="&lt;font style=&quot;font-size: 8px;&quot;&gt;ECS&lt;/font&gt;" style="text;html=1;align=center;verticalAlign=middle;resizable=0;points=[];autosize=1;strokeColor=none;fillColor=none;" vertex="1" parent="1">
          <mxGeometry x="168" y="111.5" width="34" height="26" as="geometry" />
        </mxCell>
        <mxCell id="VyhmnqB3cHVvN08Xzc9Z-25" style="rounded=0;orthogonalLoop=1;jettySize=auto;html=1;entryX=1;entryY=0.5;entryDx=0;entryDy=0;exitX=0;exitY=0.5;exitDx=0;exitDy=0;" edge="1" parent="1" source="VyhmnqB3cHVvN08Xzc9Z-24" target="VyhmnqB3cHVvN08Xzc9Z-21">
          <mxGeometry relative="1" as="geometry" />
        </mxCell>
        <mxCell id="VyhmnqB3cHVvN08Xzc9Z-26" style="rounded=0;orthogonalLoop=1;jettySize=auto;html=1;exitX=0;exitY=0.5;exitDx=0;exitDy=0;entryX=1;entryY=0.75;entryDx=0;entryDy=0;" edge="1" parent="1" source="VyhmnqB3cHVvN08Xzc9Z-24" target="VyhmnqB3cHVvN08Xzc9Z-22">
          <mxGeometry relative="1" as="geometry" />
        </mxCell>
        <mxCell id="VyhmnqB3cHVvN08Xzc9Z-24" value="cache" style="rounded=0;whiteSpace=wrap;html=1;" vertex="1" parent="1">
          <mxGeometry x="223" y="161" width="50" height="23" as="geometry" />
        </mxCell>
        <mxCell id="VyhmnqB3cHVvN08Xzc9Z-29" style="rounded=0;orthogonalLoop=1;jettySize=auto;html=1;entryX=1;entryY=0.5;entryDx=0;entryDy=0;" edge="1" parent="1" source="VyhmnqB3cHVvN08Xzc9Z-27" target="VyhmnqB3cHVvN08Xzc9Z-24">
          <mxGeometry relative="1" as="geometry" />
        </mxCell>
        <mxCell id="VyhmnqB3cHVvN08Xzc9Z-30" value="image" style="edgeLabel;html=1;align=center;verticalAlign=middle;resizable=0;points=[];" vertex="1" connectable="0" parent="VyhmnqB3cHVvN08Xzc9Z-29">
          <mxGeometry x="-0.0487" y="-1" relative="1" as="geometry">
            <mxPoint as="offset" />
          </mxGeometry>
        </mxCell>
        <mxCell id="VyhmnqB3cHVvN08Xzc9Z-41" style="rounded=0;orthogonalLoop=1;jettySize=auto;html=1;entryX=0.75;entryY=0;entryDx=0;entryDy=0;exitX=0;exitY=0;exitDx=0;exitDy=37.5;exitPerimeter=0;" edge="1" parent="1" source="VyhmnqB3cHVvN08Xzc9Z-27" target="VyhmnqB3cHVvN08Xzc9Z-40">
          <mxGeometry relative="1" as="geometry" />
        </mxCell>
        <mxCell id="VyhmnqB3cHVvN08Xzc9Z-42" value="image" style="edgeLabel;html=1;align=center;verticalAlign=middle;resizable=0;points=[];" vertex="1" connectable="0" parent="VyhmnqB3cHVvN08Xzc9Z-41">
          <mxGeometry x="-0.5474" y="-1" relative="1" as="geometry">
            <mxPoint as="offset" />
          </mxGeometry>
        </mxCell>
        <mxCell id="VyhmnqB3cHVvN08Xzc9Z-27" value="repo" style="shape=cylinder3;whiteSpace=wrap;html=1;boundedLbl=1;backgroundOutline=1;size=15;" vertex="1" parent="1">
          <mxGeometry x="348" y="117" width="60" height="60" as="geometry" />
        </mxCell>
        <mxCell id="VyhmnqB3cHVvN08Xzc9Z-31" style="rounded=0;orthogonalLoop=1;jettySize=auto;html=1;entryX=1;entryY=0.75;entryDx=0;entryDy=0;" edge="1" parent="1" target="VyhmnqB3cHVvN08Xzc9Z-22">
          <mxGeometry relative="1" as="geometry">
            <mxPoint x="347" y="294" as="sourcePoint" />
          </mxGeometry>
        </mxCell>
        <mxCell id="VyhmnqB3cHVvN08Xzc9Z-33" value="data" style="edgeLabel;html=1;align=center;verticalAlign=middle;resizable=0;points=[];" vertex="1" connectable="0" parent="VyhmnqB3cHVvN08Xzc9Z-31">
          <mxGeometry x="-0.4001" y="-1" relative="1" as="geometry">
            <mxPoint x="-38" y="-21" as="offset" />
          </mxGeometry>
        </mxCell>
        <mxCell id="VyhmnqB3cHVvN08Xzc9Z-43" style="edgeStyle=orthogonalEdgeStyle;rounded=0;orthogonalLoop=1;jettySize=auto;html=1;entryX=0.5;entryY=1;entryDx=0;entryDy=0;" edge="1" parent="1" source="VyhmnqB3cHVvN08Xzc9Z-28" target="VyhmnqB3cHVvN08Xzc9Z-35">
          <mxGeometry relative="1" as="geometry">
            <Array as="points">
              <mxPoint x="378" y="379" />
              <mxPoint x="185" y="379" />
            </Array>
          </mxGeometry>
        </mxCell>
        <mxCell id="VyhmnqB3cHVvN08Xzc9Z-44" value="data" style="edgeLabel;html=1;align=center;verticalAlign=middle;resizable=0;points=[];" vertex="1" connectable="0" parent="VyhmnqB3cHVvN08Xzc9Z-43">
          <mxGeometry x="-0.1792" y="-2" relative="1" as="geometry">
            <mxPoint as="offset" />
          </mxGeometry>
        </mxCell>
        <mxCell id="VyhmnqB3cHVvN08Xzc9Z-28" value="s3" style="shape=cylinder3;whiteSpace=wrap;html=1;boundedLbl=1;backgroundOutline=1;size=15;" vertex="1" parent="1">
          <mxGeometry x="348" y="259" width="60" height="60" as="geometry" />
        </mxCell>
        <mxCell id="VyhmnqB3cHVvN08Xzc9Z-47" style="edgeStyle=orthogonalEdgeStyle;rounded=0;orthogonalLoop=1;jettySize=auto;html=1;entryX=1;entryY=0.25;entryDx=0;entryDy=0;" edge="1" parent="1" source="VyhmnqB3cHVvN08Xzc9Z-35" target="VyhmnqB3cHVvN08Xzc9Z-46">
          <mxGeometry relative="1" as="geometry">
            <Array as="points">
              <mxPoint x="142" y="312" />
              <mxPoint x="142" y="514" />
            </Array>
          </mxGeometry>
        </mxCell>
        <mxCell id="VyhmnqB3cHVvN08Xzc9Z-51" value="开始回调" style="edgeLabel;html=1;align=center;verticalAlign=middle;resizable=0;points=[];" vertex="1" connectable="0" parent="VyhmnqB3cHVvN08Xzc9Z-47">
          <mxGeometry x="0.6138" y="-2" relative="1" as="geometry">
            <mxPoint as="offset" />
          </mxGeometry>
        </mxCell>
        <mxCell id="VyhmnqB3cHVvN08Xzc9Z-50" style="edgeStyle=orthogonalEdgeStyle;rounded=0;orthogonalLoop=1;jettySize=auto;html=1;exitX=0.25;exitY=1;exitDx=0;exitDy=0;entryX=1;entryY=0.75;entryDx=0;entryDy=0;" edge="1" parent="1" source="VyhmnqB3cHVvN08Xzc9Z-35" target="VyhmnqB3cHVvN08Xzc9Z-46">
          <mxGeometry relative="1" as="geometry" />
        </mxCell>
        <mxCell id="VyhmnqB3cHVvN08Xzc9Z-52" value="结束回调" style="edgeLabel;html=1;align=center;verticalAlign=middle;resizable=0;points=[];" vertex="1" connectable="0" parent="VyhmnqB3cHVvN08Xzc9Z-50">
          <mxGeometry x="0.6109" y="-1" relative="1" as="geometry">
            <mxPoint as="offset" />
          </mxGeometry>
        </mxCell>
        <mxCell id="VyhmnqB3cHVvN08Xzc9Z-35" value="pod" style="rounded=1;whiteSpace=wrap;html=1;" vertex="1" parent="1">
          <mxGeometry x="158" y="299" width="54" height="26" as="geometry" />
        </mxCell>
        <mxCell id="VyhmnqB3cHVvN08Xzc9Z-37" value="&lt;font style=&quot;font-size: 8px;&quot;&gt;ECS&lt;/font&gt;" style="text;html=1;align=center;verticalAlign=middle;resizable=0;points=[];autosize=1;strokeColor=none;fillColor=none;" vertex="1" parent="1">
          <mxGeometry x="168" y="252" width="34" height="26" as="geometry" />
        </mxCell>
        <mxCell id="VyhmnqB3cHVvN08Xzc9Z-38" style="rounded=0;orthogonalLoop=1;jettySize=auto;html=1;entryX=1;entryY=0.5;entryDx=0;entryDy=0;exitX=0;exitY=0.5;exitDx=0;exitDy=0;" edge="1" parent="1" source="VyhmnqB3cHVvN08Xzc9Z-40" target="VyhmnqB3cHVvN08Xzc9Z-35">
          <mxGeometry relative="1" as="geometry" />
        </mxCell>
        <mxCell id="VyhmnqB3cHVvN08Xzc9Z-40" value="cache" style="rounded=0;whiteSpace=wrap;html=1;" vertex="1" parent="1">
          <mxGeometry x="223" y="301.5" width="50" height="23" as="geometry" />
        </mxCell>
        <mxCell id="VyhmnqB3cHVvN08Xzc9Z-45" value="失败策略" style="rounded=1;whiteSpace=wrap;html=1;" vertex="1" parent="1">
          <mxGeometry x="-56" y="295.5" width="82" height="35" as="geometry" />
        </mxCell>
        <mxCell id="VyhmnqB3cHVvN08Xzc9Z-46" value="回调方法" style="rounded=1;whiteSpace=wrap;html=1;" vertex="1" parent="1">
          <mxGeometry x="-64" y="505" width="82" height="35" as="geometry" />
        </mxCell>
        <mxCell id="VyhmnqB3cHVvN08Xzc9Z-53" style="edgeStyle=orthogonalEdgeStyle;rounded=0;orthogonalLoop=1;jettySize=auto;html=1;entryX=0.5;entryY=1;entryDx=0;entryDy=0;entryPerimeter=0;" edge="1" parent="1" source="VyhmnqB3cHVvN08Xzc9Z-46" target="VyhmnqB3cHVvN08Xzc9Z-11">
          <mxGeometry relative="1" as="geometry" />
        </mxCell>
        <mxCell id="VyhmnqB3cHVvN08Xzc9Z-54" value="更新任务状态" style="edgeLabel;html=1;align=center;verticalAlign=middle;resizable=0;points=[];" vertex="1" connectable="0" parent="VyhmnqB3cHVvN08Xzc9Z-53">
          <mxGeometry x="-0.5376" y="-1" relative="1" as="geometry">
            <mxPoint as="offset" />
          </mxGeometry>
        </mxCell>
        <mxCell id="VyhmnqB3cHVvN08Xzc9Z-59" style="edgeStyle=orthogonalEdgeStyle;rounded=0;orthogonalLoop=1;jettySize=auto;html=1;entryX=1;entryY=0;entryDx=0;entryDy=37.5;entryPerimeter=0;" edge="1" parent="1" source="VyhmnqB3cHVvN08Xzc9Z-13" target="VyhmnqB3cHVvN08Xzc9Z-11">
          <mxGeometry relative="1" as="geometry" />
        </mxCell>
        <mxCell id="VyhmnqB3cHVvN08Xzc9Z-60" value="2" style="edgeLabel;html=1;align=center;verticalAlign=middle;resizable=0;points=[];" vertex="1" connectable="0" parent="VyhmnqB3cHVvN08Xzc9Z-59">
          <mxGeometry x="-0.1034" y="-2" relative="1" as="geometry">
            <mxPoint x="13" y="1" as="offset" />
          </mxGeometry>
        </mxCell>
        <mxCell id="VyhmnqB3cHVvN08Xzc9Z-68" style="rounded=0;orthogonalLoop=1;jettySize=auto;html=1;entryX=1;entryY=1;entryDx=0;entryDy=-15;entryPerimeter=0;exitX=0;exitY=0.5;exitDx=0;exitDy=0;" edge="1" parent="1" source="VyhmnqB3cHVvN08Xzc9Z-45" target="VyhmnqB3cHVvN08Xzc9Z-1">
          <mxGeometry relative="1" as="geometry" />
        </mxCell>
        <mxCell id="VyhmnqB3cHVvN08Xzc9Z-70" value="批量&lt;div&gt;删除&lt;/div&gt;" style="edgeLabel;html=1;align=center;verticalAlign=middle;resizable=0;points=[];" vertex="1" connectable="0" parent="VyhmnqB3cHVvN08Xzc9Z-68">
          <mxGeometry x="-0.512" y="1" relative="1" as="geometry">
            <mxPoint as="offset" />
          </mxGeometry>
        </mxCell>
      </root>
    </mxGraphModel>
  </diagram>
</mxfile>
